<?xml version="1.0" encoding="UTF-8" standalone="no"?>
<svg
   xmlns:dc="http://purl.org/dc/elements/1.1/"
   xmlns:cc="http://creativecommons.org/ns#"
   xmlns:rdf="http://www.w3.org/1999/02/22-rdf-syntax-ns#"
   xmlns:svg="http://www.w3.org/2000/svg"
   xmlns="http://www.w3.org/2000/svg"
   xmlns:sodipodi="http://sodipodi.sourceforge.net/DTD/sodipodi-0.dtd"
   xmlns:inkscape="http://www.inkscape.org/namespaces/inkscape"
   width="160mm"
   height="50mm"
   viewBox="0 0 160 50"
   version="1.1"
   id="svg8"
   inkscape:version="1.0 (4035a4fb49, 2020-05-01)"
   sodipodi:docname="logo_unicolor.svg">
  <defs
     id="defs2" />
  <sodipodi:namedview
     id="base"
     pagecolor="#ffffff"
     bordercolor="#666666"
     borderopacity="1.0"
     inkscape:pageopacity="0.0"
     inkscape:pageshadow="2"
     inkscape:zoom="1.4"
     inkscape:cx="146.48312"
     inkscape:cy="43.259839"
     inkscape:document-units="mm"
     inkscape:current-layer="layer1"
     inkscape:document-rotation="0"
     showgrid="false"
     inkscape:window-width="1920"
     inkscape:window-height="992"
     inkscape:window-x="-8"
     inkscape:window-y="-8"
     inkscape:window-maximized="1" />
  <metadata
     id="metadata5">
    <rdf:RDF>
      <cc:Work
         rdf:about="">
        <dc:format>image/svg+xml</dc:format>
        <dc:type
           rdf:resource="http://purl.org/dc/dcmitype/StillImage" />
        <dc:title />
      </cc:Work>
    </rdf:RDF>
  </metadata>
  <g
     inkscape:label="Layer 1"
     inkscape:groupmode="layer"
     id="layer1">
    <path
       d="m 31.613884,0.90897616 c -0.09342,-3.23e-5 -0.187029,0.00411 -0.28112,0.012402 C 29.944686,1.0341175 29.247673,2.403268 28.697781,3.5031331 27.199438,5.8308494 23.401569,6.5148055 21.473417,4.3490764 20.755624,3.3357715 20.263708,1.8246857 18.835336,1.6515666 16.946448,1.3650044 15.37659,2.703603 13.696115,3.3057291 c -1.300203,0.6593043 -1.815846,2.3365192 -1.24747,3.6535238 0.464021,1.2593888 0.689904,2.7062066 -0.0015,3.9325771 -1.022653,2.02818 -3.5587473,2.973526 -5.7035278,2.348177 -1.0783104,-0.299098 -2.4410741,-0.123237 -3.021521,0.955497 -0.9027439,1.402081 -1.3347683,3.047753 -1.7673339,4.63951 -0.2514993,1.203172 0.3986068,2.530432 1.5947346,2.92592 1.4460182,0.642652 2.5271864,1.930625 2.9403891,3.453536 0.4153644,1.205921 0.2356954,2.613211 -0.6614583,3.556371 -0.7402015,1.38403 -2.8444478,1.53547 -3.1853354,3.210658 -0.2680015,1.886704 0.8883568,3.562098 1.6722495,5.180044 0.6277721,1.13148 2.0019195,1.957808 3.295406,1.471745 1.1036522,-0.334442 2.2773304,-0.773444 3.4183962,-0.322977 1.953683,0.541239 3.676185,2.453166 3.347599,4.57233 -0.02622,1.345534 -0.649457,2.991591 0.430982,4.095875 1.083424,1.075258 2.681731,1.309415 4.054532,1.844849 1.198477,0.453446 2.835412,0.420556 3.562057,-0.80822 0.635159,-0.995997 1.000127,-2.238393 2.091862,-2.85564 2.117687,-1.437166 5.597335,-0.88769 6.663675,1.603002 0.560779,1.215906 2.014582,2.061687 3.324862,1.514637 1.581076,-0.461616 3.097509,-1.214401 4.416269,-2.196248 0.995778,-0.90863 1.028888,-2.444166 0.434597,-3.583244 -0.668436,-1.619766 -0.08204,-3.505071 1.183391,-4.653979 1.258432,-1.25495 3.263186,-1.737296 4.90306,-0.981337 1.388472,0.382778 2.806433,-0.588811 3.250448,-1.898592 0.704877,-1.528156 1.414338,-3.182805 1.30483,-4.896858 -0.184549,-1.156374 -1.249304,-1.897988 -2.307354,-2.188495 -2.113815,-1.107123 -2.979325,-3.96319 -1.878955,-6.074049 0.463529,-1.077587 1.467787,-1.81016 2.441713,-2.268079 1.173591,-0.771046 1.45615,-2.402681 0.849558,-3.620967 C 48.593733,14.614354 48.026025,13.309637 47.253238,12.146534 46.265988,10.981835 44.487112,11.04292 43.246766,11.743457 40.315215,12.6823 37.148853,9.7965125 37.524117,6.809908 37.67724,5.8360741 38.124534,4.8221075 37.678629,3.8488486 37.34872,2.8711182 36.436262,2.2563958 35.477213,1.9972819 34.935077,1.4859408 34.168592,1.6150553 33.518159,1.3187704 32.904868,1.1016526 32.267796,0.90920306 31.613884,0.90897616 Z m 0.0057,1.59990244 c 0.88137,0.00327 1.683144,0.4901421 2.539381,0.6552571 0.525497,0.2579108 1.12449,0.4150064 1.642277,0.7121012 0.861454,0.6321433 0.285345,1.7463608 0.170532,2.5869222 -0.62642,3.8289459 3.130428,7.6461939 6.976319,6.9835539 0.983787,-0.06584 1.986544,-1.062113 2.943489,-0.40256 0.71855,0.787905 0.988872,1.88044 1.485696,2.811198 0.331449,0.728627 0.835999,1.895674 -0.0956,2.396236 -2.063215,0.955905 -3.489915,3.094224 -3.528983,5.374866 -0.129487,2.072653 0.936786,4.068761 2.578137,5.294766 0.575842,0.580605 1.598099,0.485476 2.03295,1.205095 0.234809,1.168101 -0.390914,2.301005 -0.750343,3.383773 -0.33478,0.725582 -0.686543,2.018339 -1.730126,1.807641 -1.372534,-0.48972 -2.915923,-0.593627 -4.280876,-0.01292 -2.815744,1.064768 -4.878922,4.368556 -3.855577,7.34477 0.273603,0.768228 0.811437,1.867603 -0.111623,2.422075 -1.179827,0.752245 -2.463466,1.409829 -3.826124,1.749763 -1.036079,0.181354 -1.239332,-1.109654 -1.759582,-1.714624 -2.175539,-3.011665 -7.103861,-3.050931 -9.517764,-0.314709 -0.780645,0.72557 -0.942946,1.869276 -1.67535,2.60966 -0.823384,0.311502 -1.693498,-0.203507 -2.489254,-0.40721 C 17.50722,46.622566 16.411065,46.484361 15.813314,45.70624 15.686931,44.517359 16.034667,43.315563 15.986947,42.114728 15.888887,38.91233 12.676378,36.435158 9.5894042,36.53729 8.4576671,36.46368 7.5863228,37.279521 6.4851849,37.13002 5.5090949,36.550321 5.2086918,35.326734 4.7007979,34.374634 4.4380878,33.643892 3.8299772,32.679311 4.4160607,31.968579 5.2254053,31.381008 6.1603748,30.934386 6.8288334,30.159387 7.1800133,29.505237 7.7658902,28.983423 8.0055056,28.254594 8.8150025,25.815096 7.7500094,23.017422 5.8723025,21.360441 5.2213571,20.663852 4.1376688,20.551986 3.5633997,19.796196 3.3722856,18.678346 4.0269341,17.615029 4.3209761,16.561768 4.6629109,15.902972 4.8179591,14.714754 5.7487958,14.690564 7.122437,14.962186 8.5621347,15.196569 9.9351036,14.768594 12.730839,14.07614 14.860535,11.212135 14.435604,8.3131735 14.426204,7.23531 13.484276,6.2154391 13.966899,5.1485087 c 0.580324,-0.693031 1.587806,-0.8203491 2.334224,-1.2950113 0.816844,-0.3440128 1.882532,-1.0537806 2.711463,-0.4030763 0.616576,0.7841194 0.931897,1.8012018 1.757515,2.4298259 2.597054,2.2996421 6.970175,1.5640851 8.988599,-1.1503173 0.664271,-0.6568932 0.737409,-1.8802538 1.683618,-2.2148519 0.05951,-0.00432 0.118493,-0.00642 0.177249,-0.0062 z"
       style="fill:#ffc000;fill-opacity:1;stroke-width:0.999998"
       id="path847" />
    <path
       sodipodi:nodetypes="ccccccccccscccccccs"
       d="m 23.236666,9.7385115 c 0.02081,8.7649185 0.03983,17.5298405 0.06177,26.2947555 1.983078,-1.867699 3.968388,-3.73293 5.95236,-5.599639 1.236022,3.134873 2.47341,6.269183 3.708567,9.40441 1.409025,-0.480263 2.818482,-0.959207 4.227917,-1.438214 -1.262001,-3.157667 -2.529065,-6.313228 -3.793024,-9.47008 2.816101,0.231637 5.632103,0.464473 8.44827,0.695288 C 35.63887,22.696133 29.437539,15.765067 23.234145,8.8359245 c 8.2e-4,0.300862 0.0017,0.601725 0.0026,0.902587 z M 37.089183,27.514659 c -2.142088,0 -4.271923,-0.323817 -6.407917,-0.485222 1.329333,3.135046 2.658713,6.270073 3.988065,9.405107 -0.402164,0.140698 -0.804328,0.281393 -1.206495,0.422085 -1.235237,-3.153691 -2.46942,-6.307812 -3.705328,-9.461228 -1.516408,1.420487 -3.032626,2.841189 -4.548959,4.261763 0.0012,-5.809406 0.0023,-11.618809 0.0035,-17.428213 l 11.877149,13.285708 z"
       style="fill:#ffc000;fill-opacity:1;stroke:none;stroke-width:0.4;stroke-miterlimit:4;stroke-dasharray:none;stroke-opacity:1"
       id="path847-5" />
    <text
       transform="scale(0.95989132,1.0417846)"
       id="text851"
       y="32.251759"
       x="6.4841995"
       style="font-size:31.2862px;line-height:1.25;font-family:sans-serif;letter-spacing:0px;word-spacing:0px;fill:#ffc000;fill-opacity:1;stroke:none;stroke-width:0.4;stroke-miterlimit:4;stroke-dasharray:none;stroke-opacity:1"
       xml:space="preserve"><tspan
         style="fill:#ffc000;fill-opacity:1;stroke:none;stroke-width:0.4;stroke-miterlimit:4;stroke-dasharray:none;stroke-opacity:1"
         y="32.251759"
         x="6.4841995"
         id="tspan849"
         sodipodi:role="line">{</tspan></text>
    <text
       id="text834"
       y="18.619944"
       x="54.573593"
       style="font-style:normal;font-variant:normal;font-weight:normal;font-stretch:normal;font-size:19.7556px;line-height:1.1;font-family:'Script MT Bold';-inkscape-font-specification:'Script MT Bold, ';letter-spacing:0px;word-spacing:0px;fill:#ffc000;fill-opacity:1;stroke-width:0.264583"
       xml:space="preserve"><tspan
         sodipodi:role="line"
         style="font-style:normal;font-variant:normal;font-weight:normal;font-stretch:normal;font-size:19.7556px;font-family:'Script MT Bold';-inkscape-font-specification:'Script MT Bold, ';fill:#ffc000;fill-opacity:1;stroke-width:0.264583"
         y="18.619944"
         x="54.573593"
         id="tspan832">P.R.F.</tspan><tspan
         sodipodi:role="line"
         id="tspan836"
         style="font-style:normal;font-variant:normal;font-weight:normal;font-stretch:normal;font-size:19.7556px;font-family:'Script MT Bold';-inkscape-font-specification:'Script MT Bold, ';fill:#ffc000;fill-opacity:1;stroke-width:0.264583"
         y="40.351105"
         x="54.573593">Development</tspan></text>
    <text
       xml:space="preserve"
       style="font-style:normal;font-variant:normal;font-weight:normal;font-stretch:normal;font-size:19.7556px;line-height:1.1;font-family:'Script MT Bold';-inkscape-font-specification:'Script MT Bold, ';letter-spacing:0px;word-spacing:0px;fill:#ffc000;fill-opacity:1;stroke-width:0.264583"
       x="54.573593"
       y="18.619944"
       id="text3245"><tspan
         id="tspan3241"
         x="54.573593"
         y="18.619944"
         style="font-style:normal;font-variant:normal;font-weight:normal;font-stretch:normal;font-size:19.7556px;font-family:'Script MT Bold';-inkscape-font-specification:'Script MT Bold, ';fill:#ffc000;fill-opacity:1;stroke-width:0.264583"
         sodipodi:role="line">P.R.F.</tspan><tspan
         x="54.573593"
         y="40.351105"
         style="font-style:normal;font-variant:normal;font-weight:normal;font-stretch:normal;font-size:19.7556px;font-family:'Script MT Bold';-inkscape-font-specification:'Script MT Bold, ';fill:#ffc000;fill-opacity:1;stroke-width:0.264583"
         id="tspan3243"
         sodipodi:role="line" /></text>
  </g>
</svg>
