<?xml version="1.0" encoding="UTF-8" standalone="no"?>
<svg
   xmlns:dc="http://purl.org/dc/elements/1.1/"
   xmlns:cc="http://creativecommons.org/ns#"
   xmlns:rdf="http://www.w3.org/1999/02/22-rdf-syntax-ns#"
   xmlns:svg="http://www.w3.org/2000/svg"
   xmlns="http://www.w3.org/2000/svg"
   xmlns:sodipodi="http://sodipodi.sourceforge.net/DTD/sodipodi-0.dtd"
   xmlns:inkscape="http://www.inkscape.org/namespaces/inkscape"
   inkscape:export-ydpi="564.55798"
   inkscape:export-xdpi="564.55798"
   inkscape:export-filename="D:\pauld\Jobs\logo_square.png"
   sodipodi:docname="logo_square.svg"
   inkscape:version="1.0 (4035a4fb49, 2020-05-01)"
   id="svg8"
   version="1.1"
   viewBox="0 0 50 50"
   height="50mm"
   width="50mm">
  <defs
     id="defs2" />
  <sodipodi:namedview
     inkscape:window-maximized="1"
     inkscape:window-y="-8"
     inkscape:window-x="-8"
     inkscape:window-height="992"
     inkscape:window-width="1920"
     showgrid="false"
     inkscape:document-rotation="0"
     inkscape:current-layer="layer1"
     inkscape:document-units="mm"
     inkscape:cy="135.34863"
     inkscape:cx="121.74518"
     inkscape:zoom="2.8"
     inkscape:pageshadow="2"
     inkscape:pageopacity="0.0"
     borderopacity="1.0"
     bordercolor="#666666"
     pagecolor="#ffffff"
     id="base" />
  <metadata
     id="metadata5">
    <rdf:RDF>
      <cc:Work
         rdf:about="">
        <dc:format>image/svg+xml</dc:format>
        <dc:type
           rdf:resource="http://purl.org/dc/dcmitype/StillImage" />
        <dc:title />
      </cc:Work>
    </rdf:RDF>
  </metadata>
  <g
     id="layer1"
     inkscape:groupmode="layer"
     inkscape:label="Layer 1">
    <path
       d="M 30.64822,1.9647482 C 29.908662,1.9726795 29.48354,2.3869291 29.051933,3.2964498 27.03498,7.5467754 20.892656,7.9361759 18.997251,3.9341371 18.287778,2.4361293 17.350534,2.2718802 15.288433,3.283014 14.527205,3.656276 13.67195,4.0587969 13.387774,4.1775329 12.330034,4.619485 12.049132,5.5993736 12.58679,6.9716776 14.274488,11.279344 10.331826,15.415676 5.6135718,14.28751 3.9351467,13.886188 3.5685874,14.252954 2.4855974,17.419102 c -0.809946,2.367895 -0.6801722,2.857404 0.9565308,3.612182 2.9669028,1.368212 4.3918883,6.007523 2.4768514,8.063074 -0.1559592,0.167404 -0.283187,0.366733 -0.283187,0.443383 0,0.22171 -1.1349633,1.186921 -1.7864542,1.519288 -1.500231,0.76536 -1.5521547,1.574985 -0.2723348,4.248319 1.1937351,2.493521 1.7241107,2.781739 3.7150187,2.017448 2.474617,-0.949981 5.8886647,0.698333 6.9065547,3.334681 0.367852,0.952746 0.378049,1.471645 0.08423,4.286041 -0.131437,1.259009 0.234801,1.597562 2.6479,2.446364 2.88775,1.015757 3.351319,0.915654 4.153235,-0.89762 1.785361,-4.037018 7.989073,-4.295955 9.978202,-0.416512 0.813925,1.587415 1.492816,1.666891 4.018875,0.470773 2.771439,-1.31231 3.061066,-1.809544 2.261878,-3.882451 -1.508056,-3.911547 2.881276,-8.356433 6.899839,-6.98717 1.588661,0.541312 2.188337,0.02783 3.181718,-2.726449 0.950325,-2.634895 0.763492,-3.497307 -0.863513,-3.98477 -1.099249,-0.329343 -2.572017,-1.962618 -2.979664,-3.304707 -0.831037,-2.736012 0.287534,-5.552842 2.692858,-6.779948 1.322605,-0.674741 1.439498,-1.530976 0.484209,-3.551205 C 46.405842,14.58435 46.01455,13.753586 45.888632,13.483425 45.329983,12.284815 44.370466,11.977021 43.041261,12.570302 39.066095,14.344589 34.432214,10.112779 35.673753,5.8420309 36.10778,4.3490297 35.662283,3.4504418 34.287272,3.0458192 33.935244,2.942228 33.647521,2.7964159 33.647521,2.7218079 c 0,-0.074608 -0.0551,-0.1015806 -0.122476,-0.059945 C 33.457675,2.7034989 32.946309,2.5722989 32.388681,2.369891 31.649107,2.1014402 31.091952,1.9599894 30.64822,1.9647482 Z"
       style="fill:#800080;fill-opacity:1;stroke-width:0.999998"
       id="path847"
       sodipodi:nodetypes="scssscsssssssssssssssssssssssssssss" />
    <g
       transform="translate(-0.5669643,-0.47247025)"
       id="g837">
      <path
         sodipodi:nodetypes="ccccccccccscccccccs"
         d="m 22.931355,10.404932 c 0.02081,8.764919 0.03983,17.529841 0.06177,26.294756 1.983078,-1.867701 3.968388,-3.732931 5.952361,-5.599641 1.236021,3.134874 2.473408,6.269185 3.708565,9.404412 1.409025,-0.480265 2.818482,-0.959208 4.227918,-1.438215 -1.262002,-3.157667 -2.529065,-6.313228 -3.793024,-9.47008 2.816099,0.231639 5.632104,0.464475 8.448269,0.695288 -6.203656,-6.928898 -12.404987,-13.859964 -18.60838,-20.7891068 8.27e-4,0.3008622 0.0017,0.6017248 0.0026,0.9025868 z M 36.783872,28.18108 c -2.142088,0 -4.271922,-0.323817 -6.407918,-0.485222 1.329333,3.135046 2.658714,6.270073 3.988065,9.405108 -0.402165,0.140696 -0.804329,0.28139 -1.206494,0.422084 -1.235238,-3.153691 -2.469419,-6.307813 -3.705329,-9.461228 -1.516407,1.420487 -3.032625,2.841189 -4.548958,4.261762 0.0012,-5.809405 0.0023,-11.618808 0.0035,-17.428212 l 11.87715,13.285708 z"
         style="fill:#ffc000;fill-opacity:1;stroke:none;stroke-width:0.400001;stroke-miterlimit:4;stroke-dasharray:none;stroke-opacity:1"
         id="path847-5" />
      <text
         transform="scale(0.95989133,1.0417846)"
         id="text851"
         y="32.891502"
         x="6.166131"
         style="font-size:31.2863px;line-height:1.25;font-family:sans-serif;letter-spacing:0px;word-spacing:0px;fill:#ffc000;fill-opacity:1;stroke:none;stroke-width:0.400001;stroke-miterlimit:4;stroke-dasharray:none;stroke-opacity:1"
         xml:space="preserve"><tspan
           style="fill:#ffc000;fill-opacity:1;stroke:none;stroke-width:0.400001;stroke-miterlimit:4;stroke-dasharray:none;stroke-opacity:1"
           y="32.891502"
           x="6.166131"
           id="tspan849"
           sodipodi:role="line">{</tspan></text>
    </g>
  </g>
</svg>
